<svg width="110" height="120" viewBox="0 0 152 151" fill="none" xmlns="http://www.w3.org/2000/svg"><path d="M85.5057 151H67.17C66.6967 151 66.2365 150.844 65.8603 150.557C65.4841 150.27 65.2129 149.867 65.0884 149.41L61.7211 137.03C55.1589 135.488 48.8887 132.896 43.1524 129.355L32.0237 135.723C31.6136 135.956 31.1384 136.048 30.6709 135.986C30.2034 135.923 29.7693 135.709 29.4351 135.376L16.4707 122.411C16.1377 122.077 15.9235 121.643 15.8608 121.176C15.798 120.708 15.8903 120.233 16.1234 119.823L22.4913 108.694C18.9505 102.958 16.3588 96.6876 14.8162 90.1254L2.4277 86.7495C1.97103 86.625 1.56798 86.3538 1.28068 85.9776C0.993387 85.6014 0.837794 85.1412 0.837891 84.6679V66.3321C0.837794 65.8588 0.993387 65.3986 1.28068 65.0224C1.56798 64.6462 1.97103 64.375 2.4277 64.2505L14.8075 60.8832C16.3502 54.321 18.9419 48.0508 22.4827 42.3145L16.1148 31.1858C15.8817 30.7757 15.7894 30.3005 15.8521 29.833C15.9149 29.3655 16.1291 28.9314 16.4621 28.5972L29.4265 15.6328C29.7607 15.2999 30.1947 15.0856 30.6623 15.0229C31.1298 14.9602 31.605 15.0524 32.0151 15.2855L43.1438 21.6534C48.8801 18.1126 55.1502 15.5209 61.7125 13.9783L65.0798 1.59845C65.203 1.13875 65.4749 0.732713 65.8529 0.443599C66.231 0.154486 66.6941 -0.00147509 67.17 1.05158e-05H85.5057C85.9791 -8.61212e-05 86.4393 0.155507 86.8155 0.442804C87.1917 0.730101 87.4629 1.13315 87.5874 1.58982L90.9547 13.9697C97.5169 15.5123 103.787 18.104 109.523 21.6448L120.652 15.2769C121.062 15.0438 121.537 14.9515 122.005 15.0143C122.472 15.077 122.906 15.2912 123.241 15.6242L136.205 28.5886C136.538 28.9228 136.752 29.3568 136.815 29.8244C136.878 30.2919 136.785 30.7671 136.552 31.1772L130.184 42.3059C133.725 48.0422 136.317 54.3124 137.86 60.8746L150.239 64.2419C150.699 64.3651 151.105 64.637 151.394 65.0151C151.683 65.3931 151.839 65.8562 151.838 66.3321V84.6679C151.838 85.1412 151.682 85.6014 151.395 85.9776C151.108 86.3538 150.705 86.625 150.248 86.7495L137.868 90.1168C136.326 96.679 133.734 102.949 130.193 108.685L136.561 119.814C136.794 120.224 136.886 120.699 136.824 121.167C136.761 121.635 136.547 122.069 136.214 122.403L123.249 135.367C122.915 135.7 122.481 135.914 122.014 135.977C121.546 136.04 121.071 135.948 120.661 135.714L109.532 129.347C103.796 132.887 97.5255 135.479 90.9633 137.022L87.596 149.402C87.4727 149.861 87.2009 150.267 86.8228 150.556C86.4448 150.846 85.9817 151.001 85.5057 151ZM68.8181 146.686H83.8577L87.1344 134.642C87.2387 134.26 87.4462 133.914 87.7343 133.642C88.0223 133.37 88.3798 133.182 88.7673 133.1C95.7157 131.618 102.336 128.882 108.302 125.026C108.635 124.812 109.019 124.694 109.414 124.683C109.809 124.673 110.199 124.771 110.542 124.968L121.366 131.159L131.992 120.528L125.801 109.704C125.605 109.361 125.507 108.971 125.517 108.576C125.527 108.181 125.646 107.797 125.859 107.465C129.716 101.498 132.452 94.8778 133.934 87.9295C134.016 87.5419 134.203 87.1844 134.475 86.8964C134.748 86.6083 135.094 86.4008 135.476 86.2965L147.524 83.0198V67.9802L135.48 64.7143C135.098 64.61 134.752 64.4025 134.48 64.1144C134.208 63.8264 134.02 63.4689 133.938 63.0813C132.456 56.133 129.72 49.513 125.864 43.5463C125.65 43.2141 125.531 42.8297 125.521 42.4348C125.511 42.04 125.609 41.6499 125.805 41.3071L131.996 30.4826L121.366 19.8457L110.542 26.0367C110.199 26.2329 109.809 26.3313 109.414 26.321C109.019 26.3107 108.635 26.1922 108.302 25.9785C102.336 22.122 95.7157 19.3859 88.7673 17.9043C88.3798 17.822 88.0223 17.6345 87.7343 17.3624C87.4462 17.0904 87.2387 16.7442 87.1344 16.3619L83.8577 4.3143H68.8181L65.5522 16.3576C65.4479 16.7399 65.2403 17.086 64.9523 17.3581C64.6642 17.6302 64.3068 17.8177 63.9192 17.9C56.9709 19.3815 50.3509 22.1177 44.3841 25.9742C44.052 26.1879 43.6676 26.3064 43.2727 26.3167C42.8779 26.327 42.4878 26.2286 42.145 26.0324L31.3097 19.8457L20.6836 30.4718L26.8746 41.2963C27.0708 41.6391 27.1691 42.0292 27.1589 42.4241C27.1486 42.8189 27.0301 43.2033 26.8164 43.5355C22.9599 49.5022 20.2237 56.1222 18.7422 63.0705C18.6613 63.4606 18.474 63.8207 18.201 64.1108C17.928 64.401 17.58 64.6098 17.1955 64.7143L5.15218 67.9802V83.0198L17.1955 86.2965C17.5778 86.4008 17.9239 86.6083 18.196 86.8964C18.4681 87.1844 18.6555 87.5419 18.7379 87.9295C20.2194 94.8778 22.9556 101.498 26.812 107.465C27.0258 107.797 27.1443 108.181 27.1546 108.576C27.1648 108.971 27.0665 109.361 26.8703 109.704L20.6836 120.528L31.3097 131.154L42.1342 124.963C42.477 124.767 42.8671 124.669 43.2619 124.679C43.6568 124.689 44.0412 124.808 44.3733 125.022C50.3401 128.878 56.9601 131.614 63.9084 133.096C64.296 133.178 64.6534 133.365 64.9415 133.638C65.2296 133.91 65.4371 134.256 65.5414 134.638L68.8181 146.686Z" fill="url(#paint0_linear_83_415)"/><path d="M115.255 60.6611C114.832 60.6612 114.418 60.5368 114.065 60.3037C113.713 60.0705 113.436 59.7387 113.27 59.3496C112.434 57.4061 111.437 55.5358 110.289 53.7583C109.984 53.2772 109.881 52.6948 110.004 52.1384C110.126 51.5819 110.464 51.0965 110.943 50.7883C111.423 50.48 112.004 50.3739 112.562 50.493C113.119 50.6122 113.606 50.947 113.917 51.4243C115.197 53.4038 116.307 55.4878 117.235 57.6541C117.347 57.9146 117.406 58.1945 117.409 58.4778C117.412 58.7611 117.36 59.0423 117.255 59.3053C117.149 59.5683 116.993 59.808 116.795 60.0107C116.597 60.2133 116.361 60.375 116.101 60.4864C115.833 60.6004 115.546 60.6598 115.255 60.6611Z" fill="url(#paint1_linear_83_415)"/><path d="M76.3378 120.131C64.5009 120.131 53.1487 115.429 44.7787 107.059C36.4088 98.6892 31.7065 87.3371 31.7065 75.5001C31.7065 63.6632 36.4088 52.311 44.7787 43.9411C53.1487 35.5711 64.5009 30.8689 76.3378 30.8689C77.6187 30.8608 78.8991 30.9228 80.1732 31.0544C80.4585 31.0804 80.7357 31.1629 80.9887 31.2972C81.2417 31.4315 81.4654 31.6148 81.6468 31.8365C81.8282 32.0581 81.9636 32.3137 82.0452 32.5882C82.1268 32.8628 82.1529 33.1509 82.1219 33.4356C82.091 33.7204 82.0036 33.9961 81.865 34.2467C81.7264 34.4974 81.5392 34.7179 81.3144 34.8954C81.0897 35.0729 80.8318 35.2039 80.5559 35.2807C80.2799 35.3575 79.9915 35.3786 79.7073 35.3428C78.5878 35.2286 77.463 35.1753 76.3378 35.1831C68.3964 35.1804 60.6311 37.523 54.0161 41.917C47.4011 46.311 42.2311 52.5608 39.1547 59.8821C36.0784 67.2034 35.2327 75.2702 36.7239 83.0703C38.215 90.8705 41.9765 98.0565 47.5364 103.727C53.0964 109.397 60.2071 113.299 67.9764 114.944C75.7457 116.588 83.8275 115.901 91.2079 112.969C98.5883 110.037 104.939 104.991 109.462 98.4639C113.985 91.9366 116.48 84.2188 116.633 76.2789C116.644 75.7068 116.881 75.1623 117.293 74.7652C117.705 74.3682 118.258 74.1511 118.83 74.1616C119.402 74.1722 119.947 74.4096 120.344 74.8217C120.741 75.2337 120.958 75.7866 120.948 76.3587C120.671 88.0256 115.856 99.1249 107.526 107.299C99.1964 115.472 88.0079 120.076 76.3378 120.131Z" fill="url(#paint2_linear_83_415)"/><path d="M101.812 43.682C101.345 43.6831 100.89 43.5316 100.517 43.2505C98.8991 42.0303 97.1892 40.937 95.4026 39.9803C95.1534 39.8455 94.9331 39.6628 94.7544 39.4429C94.5756 39.2229 94.442 38.9699 94.3611 38.6983C94.2802 38.4266 94.2535 38.1417 94.2827 37.8598C94.3119 37.5779 94.3963 37.3045 94.5311 37.0552C94.666 36.8059 94.8486 36.5857 95.0686 36.4069C95.2886 36.2282 95.5416 36.0946 95.8132 36.0137C96.0848 35.9328 96.3697 35.9061 96.6516 35.9353C96.9335 35.9645 97.207 36.0489 97.4562 36.1837C99.4363 37.2485 101.332 38.4629 103.127 39.8164C103.49 40.0887 103.758 40.4686 103.893 40.902C104.028 41.3354 104.022 41.8003 103.878 42.2304C103.733 42.6605 103.456 43.034 103.087 43.2978C102.717 43.5615 102.274 43.702 101.82 43.6992L101.812 43.682Z" fill="url(#paint3_linear_83_415)"/><path d="M85.6437 118.966C85.0716 118.966 84.5229 118.739 84.1184 118.334C83.7138 117.93 83.4866 117.381 83.4866 116.809V94.8818C83.4866 94.3096 83.7138 93.761 84.1184 93.3564C84.5229 92.9519 85.0716 92.7246 85.6437 92.7246C86.2158 92.7246 86.7645 92.9519 87.169 93.3564C87.5736 93.761 87.8009 94.3096 87.8009 94.8818V116.809C87.8009 117.381 87.5736 117.93 87.169 118.334C86.7645 118.739 86.2158 118.966 85.6437 118.966Z" fill="url(#paint4_linear_83_415)"/><path d="M67.0319 118.966C66.4598 118.966 65.9111 118.739 65.5066 118.334C65.102 117.93 64.8748 117.381 64.8748 116.809V94.8818C64.8748 94.3096 65.102 93.761 65.5066 93.3564C65.9111 92.9519 66.4598 92.7246 67.0319 92.7246C67.604 92.7246 68.1527 92.9519 68.5572 93.3564C68.9618 93.761 69.189 94.3096 69.189 94.8818V116.809C69.189 117.381 68.9618 117.93 68.5572 118.334C68.1527 118.739 67.604 118.966 67.0319 118.966Z" fill="url(#paint5_linear_83_415)"/><path d="M67.0299 97.039C66.6753 97.04 66.3261 96.9525 66.0139 96.7844C62.3874 94.8534 59.3749 91.9443 57.3186 88.3874C55.2622 84.8304 54.2443 80.7682 54.3805 76.6619C54.5166 72.5556 55.8013 68.5697 58.0887 65.1568C60.3762 61.7439 63.5747 59.0406 67.3211 57.354C67.5794 57.2373 67.8583 57.1726 68.1416 57.1637C68.425 57.1547 68.7073 57.2017 68.9725 57.3018C69.2377 57.402 69.4806 57.5534 69.6873 57.7474C69.894 57.9414 70.0604 58.1743 70.1772 58.4326C70.2939 58.691 70.3585 58.9698 70.3675 59.2531C70.3765 59.5365 70.3295 59.8188 70.2294 60.084C70.1292 60.3492 69.9778 60.5921 69.7838 60.7988C69.5898 61.0055 69.3569 61.1719 69.0986 61.2887C66.0882 62.644 63.5181 64.8161 61.6801 67.5586C59.8421 70.301 58.8098 73.5038 58.7004 76.8034C58.591 80.1029 59.4089 83.3671 61.0612 86.2252C62.7135 89.0834 65.1341 91.421 68.0481 92.9728C68.4712 93.2 68.8065 93.562 69.0006 94.0014C69.1947 94.4408 69.2367 94.9323 69.1198 95.3982C69.0029 95.8641 68.7338 96.2777 68.3552 96.5733C67.9766 96.869 67.5102 97.0298 67.0299 97.0304V97.039Z" fill="url(#paint6_linear_83_415)"/><path d="M85.6458 97.039C85.1655 97.0384 84.6991 96.8776 84.3205 96.582C83.9419 96.2863 83.6729 95.8728 83.556 95.4069C83.439 94.941 83.481 94.4494 83.6751 94.01C83.8693 93.5707 84.2045 93.2087 84.6277 92.9814C87.544 91.4305 89.9668 89.0927 91.6208 86.2336C93.2747 83.3745 94.0935 80.1087 93.9841 76.8075C93.8747 73.5062 92.8414 70.3019 91.0017 67.5586C89.1621 64.8153 86.5898 62.643 83.5771 61.2887C83.3188 61.1719 83.0859 61.0055 82.8919 60.7988C82.6979 60.5921 82.5465 60.3492 82.4463 60.084C82.3462 59.8188 82.2992 59.5365 82.3082 59.2531C82.3172 58.9698 82.3818 58.691 82.4986 58.4326C82.6153 58.1743 82.7817 57.9414 82.9884 57.7474C83.1951 57.5534 83.438 57.402 83.7032 57.3018C83.9684 57.2017 84.2508 57.1547 84.5341 57.1637C84.8175 57.1726 85.0963 57.2373 85.3546 57.354C89.101 59.0406 92.2995 61.7439 94.587 65.1568C96.8744 68.5697 98.1591 72.5556 98.2952 76.6619C98.4314 80.7682 97.4135 84.8304 95.3571 88.3874C93.3008 91.9443 90.2883 94.8534 86.6618 96.7844C86.3496 96.9525 86.0004 97.04 85.6458 97.039Z" fill="url(#paint7_linear_83_415)"/><path d="M83.0249 75.9873H69.6506C68.6973 75.9862 67.7833 75.6069 67.1092 74.9328C66.435 74.2587 66.0558 73.3447 66.0547 72.3913V59.3212C66.0547 58.7491 66.282 58.2004 66.6865 57.7959C67.091 57.3913 67.6397 57.1641 68.2118 57.1641C68.7839 57.1641 69.3326 57.3913 69.7372 57.7959C70.1417 58.2004 70.369 58.7491 70.369 59.3212V71.673H82.3109V59.3212C82.3109 58.7491 82.5382 58.2004 82.9427 57.7959C83.3473 57.3913 83.8959 57.1641 84.4681 57.1641C85.0402 57.1641 85.5888 57.3913 85.9934 57.7959C86.3979 58.2004 86.6252 58.7491 86.6252 59.3212V72.3913C86.6241 73.3454 86.2442 74.2601 85.5692 74.9343C84.8941 75.6086 83.979 75.9873 83.0249 75.9873Z" fill="url(#paint8_linear_83_415)"/><defs><linearGradient id="paint0_linear_83_415" x1="-13.7228" y1="151" x2="151.838" y2="151" gradientUnits="userSpaceOnUse"><stop stop-color="#6881F2"/><stop offset="0.345" stop-color="#9668F2"/><stop offset="1" stop-color="#D55FDD"/></linearGradient><linearGradient id="paint1_linear_83_415" x1="109.234" y1="60.6611" x2="117.409" y2="60.6611" gradientUnits="userSpaceOnUse"><stop stop-color="#6881F2"/><stop offset="0.345" stop-color="#9668F2"/><stop offset="1" stop-color="#D55FDD"/></linearGradient><linearGradient id="paint2_linear_83_415" x1="23.1011" y1="120.131" x2="120.948" y2="120.131" gradientUnits="userSpaceOnUse"><stop stop-color="#6881F2"/><stop offset="0.345" stop-color="#9668F2"/><stop offset="1" stop-color="#D55FDD"/></linearGradient><linearGradient id="paint3_linear_83_415" x1="93.334" y1="43.6993" x2="103.99" y2="43.6993" gradientUnits="userSpaceOnUse"><stop stop-color="#6881F2"/><stop offset="0.345" stop-color="#9668F2"/><stop offset="1" stop-color="#D55FDD"/></linearGradient><linearGradient id="paint4_linear_83_415" x1="83.0706" y1="118.966" x2="87.8009" y2="118.966" gradientUnits="userSpaceOnUse"><stop stop-color="#6881F2"/><stop offset="0.345" stop-color="#9668F2"/><stop offset="1" stop-color="#D55FDD"/></linearGradient><linearGradient id="paint5_linear_83_415" x1="64.4587" y1="118.966" x2="69.189" y2="118.966" gradientUnits="userSpaceOnUse"><stop stop-color="#6881F2"/><stop offset="0.345" stop-color="#9668F2"/><stop offset="1" stop-color="#D55FDD"/></linearGradient><linearGradient id="paint6_linear_83_415" x1="52.8255" y1="97.039" x2="70.3686" y2="97.039" gradientUnits="userSpaceOnUse"><stop stop-color="#6881F2"/><stop offset="0.345" stop-color="#9668F2"/><stop offset="1" stop-color="#D55FDD"/></linearGradient><linearGradient id="paint7_linear_83_415" x1="80.7643" y1="97.039" x2="98.3073" y2="97.039" gradientUnits="userSpaceOnUse"><stop stop-color="#6881F2"/><stop offset="0.345" stop-color="#9668F2"/><stop offset="1" stop-color="#D55FDD"/></linearGradient><linearGradient id="paint8_linear_83_415" x1="64.0711" y1="75.9873" x2="86.6252" y2="75.9873" gradientUnits="userSpaceOnUse"><stop stop-color="#6881F2"/><stop offset="0.345" stop-color="#9668F2"/><stop offset="1" stop-color="#D55FDD"/></linearGradient></defs></svg>