<svg width="110" height="120" viewBox="0 0 151 151" fill="none" xmlns="http://www.w3.org/2000/svg"><path d="M83.05 15.1002H67.95C66.5608 15.1002 65.4333 13.9728 65.4333 12.5836C65.4333 11.1944 66.5608 10.0669 67.95 10.0669H83.05C84.4392 10.0669 85.5667 11.1944 85.5667 12.5836C85.5667 13.9728 84.4392 15.1002 83.05 15.1002Z" fill="url(#paint0_linear_83_556)"/><path d="M103.183 151H47.8167C40.8758 151 35.2334 145.353 35.2334 138.417V52.8502C35.2334 51.461 36.3609 50.3335 37.7501 50.3335C39.1393 50.3335 40.2667 51.461 40.2667 52.8502V138.417C40.2667 142.579 43.6542 145.967 47.8167 145.967H103.183C107.346 145.967 110.733 142.579 110.733 138.417V52.8502C110.733 51.461 111.861 50.3335 113.25 50.3335C114.639 50.3335 115.767 51.461 115.767 52.8502V138.417C115.767 145.353 110.124 151 103.183 151Z" fill="url(#paint1_linear_83_556)"/><path d="M113.25 70.4667C111.861 70.4667 110.733 69.3392 110.733 67.95V12.5833C110.733 8.42077 107.346 5.03333 103.183 5.03333H47.8166C43.654 5.03333 40.2666 8.42077 40.2666 12.5833V67.95C40.2666 69.3392 39.1391 70.4667 37.7499 70.4667C36.3607 70.4667 35.2333 69.3392 35.2333 67.95V12.5833C35.2333 5.6474 40.8756 0 47.8166 0H103.183C110.124 0 115.767 5.6474 115.767 12.5833V67.95C115.767 69.3392 114.639 70.4667 113.25 70.4667Z" fill="url(#paint2_linear_83_556)"/><path d="M128.35 25.4183C126.961 25.4183 125.833 24.5425 125.833 23.1533V22.65C125.833 21.2608 126.961 20.1333 128.35 20.1333C129.739 20.1333 130.867 21.2608 130.867 22.65C130.867 24.0392 129.739 25.4183 128.35 25.4183Z" fill="url(#paint3_linear_83_556)"/><path d="M128.35 35.4852C126.961 35.4852 125.833 34.6094 125.833 33.2202V32.7169C125.833 31.3277 126.961 30.2002 128.35 30.2002C129.739 30.2002 130.867 31.3277 130.867 32.7169C130.867 34.1061 129.739 35.4852 128.35 35.4852Z" fill="url(#paint4_linear_83_556)"/><path d="M128.35 45.5516C126.961 45.5516 125.833 44.6758 125.833 43.2866V42.7833C125.833 41.3941 126.961 40.2666 128.35 40.2666C129.739 40.2666 130.867 41.3941 130.867 42.7833C130.867 44.1725 129.739 45.5516 128.35 45.5516Z" fill="url(#paint5_linear_83_556)"/><path d="M22.65 110.482C21.2608 110.482 20.1333 109.606 20.1333 108.217V107.713C20.1333 106.324 21.2608 105.197 22.65 105.197C24.0392 105.197 25.1666 106.324 25.1666 107.713C25.1666 109.103 24.0392 110.482 22.65 110.482Z" fill="url(#paint6_linear_83_556)"/><path d="M22.65 120.548C21.2608 120.548 20.1333 119.672 20.1333 118.283V117.78C20.1333 116.391 21.2608 115.263 22.65 115.263C24.0392 115.263 25.1666 116.391 25.1666 117.78C25.1666 119.169 24.0392 120.548 22.65 120.548Z" fill="url(#paint7_linear_83_556)"/><path d="M22.65 130.615C21.2608 130.615 20.1333 129.739 20.1333 128.35V127.847C20.1333 126.458 21.2608 125.33 22.65 125.33C24.0392 125.33 25.1666 126.458 25.1666 127.847C25.1666 129.236 24.0392 130.615 22.65 130.615Z" fill="url(#paint8_linear_83_556)"/><path d="M120 130.867C119.824 130.867 119.642 130.851 119.466 130.811C118.107 130.519 117.246 129.18 117.538 127.821L119.199 120.12C119.401 119.174 120.131 118.434 121.067 118.208C123.442 117.634 125.758 116.668 127.947 115.334C128.758 114.83 129.8 114.845 130.61 115.359L135.593 118.545L138.678 115.434L135.492 110.492C134.969 109.681 134.959 108.639 135.457 107.819C136.791 105.629 137.757 103.314 138.326 100.938C138.553 100.002 139.287 99.2774 140.229 99.066L145.967 97.7925V93.479L140.234 92.2055C139.292 91.9941 138.558 91.2693 138.331 90.3331C137.762 87.9574 136.791 85.6421 135.462 83.4526C134.959 82.6321 134.969 81.5953 135.492 80.7849L138.683 75.7969L135.603 72.7165L130.615 75.9076C129.805 76.426 128.768 76.4361 127.952 75.9328C125.758 74.5989 123.443 73.6325 121.072 73.0587C120.131 72.8322 119.406 72.0873 119.204 71.1461L117.966 65.4332H115.767C114.377 65.4332 113.25 64.3058 113.25 62.9166C113.25 61.5274 114.377 60.3999 115.767 60.3999H119.995C121.178 60.3999 122.204 61.2304 122.451 62.3881L123.795 68.5942C125.637 69.1529 127.444 69.9079 129.186 70.8491L134.591 67.3912C135.588 66.757 136.887 66.8979 137.727 67.7335L143.671 73.6728C144.507 74.5083 144.648 75.812 144.009 76.8086L140.551 82.2144C141.492 83.9609 142.247 85.7679 142.806 87.6151L149.022 88.9943C150.18 89.251 151 90.2778 151 91.4556V99.8109C151 100.989 150.18 102.016 149.027 102.267L142.811 103.646C142.252 105.494 141.497 107.3 140.556 109.042L144.009 114.398C144.653 115.389 144.517 116.698 143.682 117.533L137.737 123.523C136.897 124.364 135.593 124.504 134.596 123.87L129.191 120.412C127.444 121.354 125.642 122.109 123.8 122.667L122.456 128.873C122.199 130.061 121.152 130.867 120 130.867Z" fill="url(#paint9_linear_83_556)"/><path d="M122.768 108.609C121.963 108.609 121.167 108.217 120.679 107.497C119.904 106.344 120.211 104.779 121.369 104.004C124.162 102.121 125.833 98.9904 125.833 95.6332C125.833 90.0814 121.318 85.5665 115.767 85.5665C115.082 85.5665 114.403 85.637 113.753 85.7679C112.404 86.0397 111.06 85.1739 110.779 83.8049C110.502 82.4408 111.378 81.112 112.742 80.8352C113.728 80.6389 114.745 80.5332 115.767 80.5332C124.092 80.5332 130.867 87.3081 130.867 95.6332C130.867 100.672 128.365 105.363 124.167 108.181C123.739 108.468 123.251 108.609 122.768 108.609Z" fill="url(#paint10_linear_83_556)"/><path d="M35.2333 70.4668C26.9082 70.4668 20.1333 63.6919 20.1333 55.3668C20.1333 50.3083 22.65 45.6122 26.8679 42.7935C28.0105 42.0284 29.5809 42.3304 30.356 43.4931C31.1261 44.6458 30.814 46.2111 29.6564 46.9812C26.8478 48.8637 25.1666 51.9944 25.1666 55.3668C25.1666 60.9185 29.6815 65.4334 35.2333 65.4334C35.9078 65.4334 36.5722 65.368 37.2064 65.2371C38.5402 64.9603 39.8942 65.8411 40.171 67.2102C40.4478 68.5742 39.562 69.898 38.1979 70.1698C37.2366 70.3661 36.25 70.4668 35.2333 70.4668Z" fill="url(#paint11_linear_83_556)"/><path d="M35.2333 90.6002H31.0053C29.8225 90.6002 28.7957 89.7697 28.5491 88.612L27.2052 82.4059C25.363 81.8472 23.556 81.0922 21.8145 80.151L16.4087 83.6089C15.407 84.2431 14.1135 84.1072 13.2729 83.2666L7.32853 77.3273C6.493 76.4917 6.35207 75.1881 6.9913 74.1915L10.4492 68.7857C9.50797 67.0391 8.75297 65.2322 8.19427 63.3849L1.9781 62.0058C0.820433 61.7491 0 60.7223 0 59.5445V51.1892C0 50.0114 0.820433 48.9846 1.97307 48.7329L8.18923 47.3538C8.74793 45.5065 9.50293 43.6996 10.4442 41.958L6.99633 36.5975C6.35207 35.606 6.48797 34.2973 7.3235 33.4618L13.2679 27.4721C14.0984 26.6265 15.407 26.4856 16.4087 27.1248L21.8145 30.5827C23.561 29.6415 25.363 28.8865 27.2052 28.3278L28.5491 22.1217C28.841 20.7576 30.205 19.8919 31.5389 20.1939C32.8979 20.4858 33.7586 21.8247 33.4666 23.1837L31.8056 30.8847C31.6043 31.831 30.8745 32.5709 29.9383 32.7974C27.5625 33.3712 25.2472 34.3376 23.0527 35.6714C22.2373 36.1747 21.2004 36.1596 20.39 35.6462L15.407 32.4601L12.3166 35.5707L15.5027 40.5135C16.0312 41.3238 16.0412 42.3657 15.5379 43.1862C14.2041 45.3757 13.2377 47.691 12.6689 50.0667C12.4424 51.0029 11.7075 51.7277 10.7663 51.9391L5.03333 53.2075V57.5211L10.7663 58.7945C11.7075 59.0059 12.4424 59.7307 12.6689 60.6669C13.2377 63.0427 14.2091 65.358 15.5379 67.5475C16.0412 68.3679 16.0312 69.4048 15.5077 70.2152L12.3166 75.1982L15.397 78.2786L20.385 75.0874C21.1954 74.574 22.2373 74.564 23.0476 75.0623C25.2422 76.3961 27.5575 77.3625 29.9282 77.9363C30.8694 78.1628 31.5942 78.9077 31.7956 79.849L33.0338 85.5668H35.2333C36.6225 85.5668 37.75 86.6943 37.75 88.0835C37.75 89.4727 36.6225 90.6002 35.2333 90.6002Z" fill="url(#paint12_linear_83_556)"/><path d="M72.9834 88.0832C72.7821 88.0832 72.5807 88.0581 72.3744 88.0077C71.0204 87.6705 70.205 86.3065 70.5422 84.9575L75.5756 64.8242C75.9078 63.4702 77.2517 62.6548 78.6258 62.9921C79.9797 63.3293 80.7951 64.6933 80.4579 66.0423L75.4246 86.1756C75.1427 87.3232 74.1159 88.0832 72.9834 88.0832Z" fill="url(#paint13_linear_83_556)"/><path d="M88.0834 88.0833C87.4391 88.0833 86.7948 87.8367 86.3016 87.3484C85.3201 86.3669 85.3201 84.7714 86.3016 83.7899L94.5915 75.5L86.3066 67.2151C85.3251 66.2336 85.3251 64.638 86.3066 63.6565C87.2881 62.675 88.8837 62.675 89.8652 63.6565L99.9318 73.7232C100.913 74.7047 100.913 76.3003 99.9318 77.2818L89.8652 87.3484C89.3719 87.8367 88.7276 88.0833 88.0834 88.0833Z" fill="url(#paint14_linear_83_556)"/><path d="M62.9166 88.0833C62.2724 88.0833 61.6281 87.8367 61.1348 87.3484L51.0682 77.2818C50.0867 76.3003 50.0867 74.7047 51.0682 73.7232L61.1348 63.6565C62.1163 62.675 63.7119 62.675 64.6934 63.6565C65.6749 64.638 65.6749 66.2336 64.6934 67.2151L56.4085 75.5L64.6934 83.7848C65.6749 84.7663 65.6749 86.3619 64.6934 87.3434C64.2052 87.8367 63.5609 88.0833 62.9166 88.0833Z" fill="url(#paint15_linear_83_556)"/><defs><linearGradient id="paint0_linear_83_556" x1="63.4919" y1="15.1002" x2="85.5667" y2="15.1002" gradientUnits="userSpaceOnUse"><stop stop-color="#6881F2"/><stop offset="0.345" stop-color="#9668F2"/><stop offset="1" stop-color="#D55FDD"/></linearGradient><linearGradient id="paint1_linear_83_556" x1="27.4677" y1="151" x2="115.767" y2="151" gradientUnits="userSpaceOnUse"><stop stop-color="#6881F2"/><stop offset="0.345" stop-color="#9668F2"/><stop offset="1" stop-color="#D55FDD"/></linearGradient><linearGradient id="paint2_linear_83_556" x1="27.4676" y1="70.4667" x2="115.767" y2="70.4667" gradientUnits="userSpaceOnUse"><stop stop-color="#6881F2"/><stop offset="0.345" stop-color="#9668F2"/><stop offset="1" stop-color="#D55FDD"/></linearGradient><linearGradient id="paint3_linear_83_556" x1="125.348" y1="25.4183" x2="130.867" y2="25.4183" gradientUnits="userSpaceOnUse"><stop stop-color="#6881F2"/><stop offset="0.345" stop-color="#9668F2"/><stop offset="1" stop-color="#D55FDD"/></linearGradient><linearGradient id="paint4_linear_83_556" x1="125.348" y1="35.4852" x2="130.867" y2="35.4852" gradientUnits="userSpaceOnUse"><stop stop-color="#6881F2"/><stop offset="0.345" stop-color="#9668F2"/><stop offset="1" stop-color="#D55FDD"/></linearGradient><linearGradient id="paint5_linear_83_556" x1="125.348" y1="45.5516" x2="130.867" y2="45.5516" gradientUnits="userSpaceOnUse"><stop stop-color="#6881F2"/><stop offset="0.345" stop-color="#9668F2"/><stop offset="1" stop-color="#D55FDD"/></linearGradient><linearGradient id="paint6_linear_83_556" x1="19.6479" y1="110.482" x2="25.1666" y2="110.482" gradientUnits="userSpaceOnUse"><stop stop-color="#6881F2"/><stop offset="0.345" stop-color="#9668F2"/><stop offset="1" stop-color="#D55FDD"/></linearGradient><linearGradient id="paint7_linear_83_556" x1="19.6479" y1="120.548" x2="25.1666" y2="120.548" gradientUnits="userSpaceOnUse"><stop stop-color="#6881F2"/><stop offset="0.345" stop-color="#9668F2"/><stop offset="1" stop-color="#D55FDD"/></linearGradient><linearGradient id="paint8_linear_83_556" x1="19.6479" y1="130.615" x2="25.1666" y2="130.615" gradientUnits="userSpaceOnUse"><stop stop-color="#6881F2"/><stop offset="0.345" stop-color="#9668F2"/><stop offset="1" stop-color="#D55FDD"/></linearGradient><linearGradient id="paint9_linear_83_556" x1="109.61" y1="130.867" x2="151" y2="130.867" gradientUnits="userSpaceOnUse"><stop stop-color="#6881F2"/><stop offset="0.345" stop-color="#9668F2"/><stop offset="1" stop-color="#D55FDD"/></linearGradient><linearGradient id="paint10_linear_83_556" x1="108.786" y1="108.609" x2="130.867" y2="108.609" gradientUnits="userSpaceOnUse"><stop stop-color="#6881F2"/><stop offset="0.345" stop-color="#9668F2"/><stop offset="1" stop-color="#D55FDD"/></linearGradient><linearGradient id="paint11_linear_83_556" x1="18.1962" y1="70.4668" x2="40.2217" y2="70.4668" gradientUnits="userSpaceOnUse"><stop stop-color="#6881F2"/><stop offset="0.345" stop-color="#9668F2"/><stop offset="1" stop-color="#D55FDD"/></linearGradient><linearGradient id="paint12_linear_83_556" x1="-3.64018" y1="90.6002" x2="37.75" y2="90.6002" gradientUnits="userSpaceOnUse"><stop stop-color="#6881F2"/><stop offset="0.345" stop-color="#9668F2"/><stop offset="1" stop-color="#D55FDD"/></linearGradient><linearGradient id="paint13_linear_83_556" x1="69.4954" y1="88.0832" x2="80.5339" y2="88.0832" gradientUnits="userSpaceOnUse"><stop stop-color="#6881F2"/><stop offset="0.345" stop-color="#9668F2"/><stop offset="1" stop-color="#D55FDD"/></linearGradient><linearGradient id="paint14_linear_83_556" x1="84.1091" y1="88.0833" x2="100.668" y2="88.0833" gradientUnits="userSpaceOnUse"><stop stop-color="#6881F2"/><stop offset="0.345" stop-color="#9668F2"/><stop offset="1" stop-color="#D55FDD"/></linearGradient><linearGradient id="paint15_linear_83_556" x1="48.8762" y1="88.0833" x2="65.4295" y2="88.0833" gradientUnits="userSpaceOnUse"><stop stop-color="#6881F2"/><stop offset="0.345" stop-color="#9668F2"/><stop offset="1" stop-color="#D55FDD"/></linearGradient></defs></svg>