<svg xmlns="http://www.w3.org/2000/svg" width="40" height="40" viewBox="0 0 40 40" fill="none">
<circle cx="19.9313" cy="19.9313" r="19.4313" stroke="#585353"/>
<path d="M31.3673 12.806C30.4924 13.1984 29.5602 13.4585 28.5883 13.5848C29.5882 12.9744 30.3513 12.0152 30.71 10.8589C29.7778 11.4273 28.7486 11.8287 27.6517 12.0527C26.7666 11.089 25.505 10.4921 24.1288 10.4921C21.4586 10.4921 19.309 12.7083 19.309 15.4252C19.309 15.8161 19.3413 16.192 19.4207 16.5498C15.4111 16.3499 11.8632 14.3847 9.47976 11.3912C9.06365 12.1294 8.81957 12.9744 8.81957 13.8841C8.81957 15.5921 9.67973 17.1061 10.9619 17.9827C10.187 17.9677 9.42683 17.7376 8.78282 17.3753C8.78282 17.3903 8.78282 17.4099 8.78282 17.4294C8.78282 19.826 10.4546 21.8167 12.6469 22.2753C12.2543 22.3851 11.8264 22.4377 11.3824 22.4377C11.0736 22.4377 10.7619 22.4196 10.4693 22.3535C11.0942 24.3066 12.8674 25.7425 14.9759 25.7891C13.335 27.1017 11.2515 27.8925 8.99602 27.8925C8.60049 27.8925 8.22115 27.8745 7.8418 27.8249C9.9782 29.2337 12.5101 30.0381 15.2406 30.0381C24.1156 30.0381 28.9677 22.5204 28.9677 16.004C28.9677 15.786 28.9603 15.5755 28.95 15.3665C29.9072 14.6719 30.7115 13.8044 31.3673 12.806Z" fill="#585353"/>
</svg>