<svg width="110" height="120" viewBox="0 0 151 151" fill="none" xmlns="http://www.w3.org/2000/svg"><path d="M117.881 32.166C114.343 22.9603 108.234 15.072 100.164 9.30715C91.6408 3.21848 81.5837 0 71.0794 0C56.4758 0 42.628 6.35881 33.0867 17.4458C32.2898 18.3716 32.3942 19.7683 33.3203 20.5652C34.2464 21.3621 35.6425 21.2574 36.4397 20.3316C45.1402 10.222 57.7655 4.42383 71.0794 4.42383C90.252 4.42383 107.526 16.5466 114.064 34.589C114.494 35.7779 115.636 36.5759 116.91 36.5759H116.914C133.27 36.5762 146.576 49.9028 146.576 66.2834C146.576 73.9157 143.691 81.1684 138.451 86.7053C137.611 87.5924 137.65 88.9924 138.537 89.8323C139.423 90.6708 140.823 90.6345 141.664 89.7459C147.685 83.3839 151 75.0514 151 66.2834C151 47.7897 136.236 32.6841 117.881 32.166Z" fill="url(#paint0_linear_83_624)"/><path d="M77.5645 135.088V130.355C77.5645 129.134 76.5744 128.144 75.3525 128.144C74.1307 128.144 73.1406 129.134 73.1406 130.355V135.088C69.7408 136.054 67.2422 139.185 67.2422 142.89C67.2422 147.362 70.8806 151 75.3525 151C79.8244 151 83.4629 147.362 83.4629 142.89C83.4629 139.185 80.9643 136.054 77.5645 135.088ZM75.3525 146.576C73.3196 146.576 71.666 144.923 71.666 142.89C71.666 140.857 73.3196 139.203 75.3525 139.203C77.3854 139.203 79.0391 140.857 79.0391 142.89C79.0391 144.923 77.3854 146.576 75.3525 146.576Z" fill="url(#paint1_linear_83_624)"/><path d="M56.7725 113.987C55.5506 113.987 54.5605 114.978 54.5605 116.199V128.144C54.5605 129.201 53.7006 130.061 52.6436 130.061H48.648C47.6824 126.661 44.5518 124.162 40.8467 124.162C36.3748 124.162 32.7363 127.8 32.7363 132.272C32.7363 136.745 36.3748 140.383 40.8467 140.383C44.5518 140.383 47.6824 137.884 48.648 134.484H52.6436C56.1399 134.484 58.9844 131.64 58.9844 128.144V116.199C58.9844 114.978 57.9943 113.987 56.7725 113.987ZM40.8467 135.959C38.8138 135.959 37.1602 134.305 37.1602 132.272C37.1602 130.24 38.8138 128.586 40.8467 128.586C42.8796 128.586 44.5332 130.24 44.5332 132.272C44.5332 134.305 42.8796 135.959 40.8467 135.959Z" fill="url(#paint2_linear_83_624)"/><path d="M128.144 107.646C124.438 107.646 121.308 110.145 120.342 113.545H116.347C115.29 113.545 114.43 112.685 114.43 111.628V100.269C118.012 100.266 120.093 100.26 120.22 100.248C124.64 99.8212 128.871 98.5548 132.794 96.4835C133.875 95.9132 134.288 94.5751 133.718 93.4948C133.147 92.4145 131.809 92.0004 130.729 92.5714C127.339 94.3613 123.684 95.4599 119.864 95.8374C119.372 95.8462 116.596 95.8497 112.22 95.8494C112.22 95.8494 112.219 95.8494 112.218 95.8494C112.217 95.8494 112.216 95.8494 112.215 95.8494C94.6611 95.8486 51.35 95.7852 26.1451 95.7436C21.9304 95.7359 17.9457 94.5975 14.6219 92.4522C8.23628 88.331 4.42383 81.3352 4.42383 73.7389C4.42383 62.8506 12.1918 53.627 22.8948 51.807C24.2983 51.5678 25.3456 50.3545 25.3848 48.9221C25.5842 41.6756 27.4236 34.785 30.8524 28.4421C31.4334 27.3674 31.0329 26.0255 29.9585 25.4445C28.8832 24.8629 27.5416 25.264 26.9609 26.3384C23.3788 32.9653 21.3777 40.1343 21.0064 47.666C8.76596 50.2943 0 61.0785 0 73.7389C0 82.8446 4.56922 91.2295 12.2227 96.1692C16.2605 98.7754 21.0722 100.158 26.1375 100.167C29.4751 100.173 32.8637 100.178 36.2754 100.184V111.628C36.2754 112.685 35.4154 113.545 34.3584 113.545H30.3628C29.3972 110.145 26.2666 107.646 22.5615 107.646C18.0896 107.646 14.4512 111.284 14.4512 115.757C14.4512 120.229 18.0896 123.867 22.5615 123.867C26.2666 123.867 29.3972 121.368 30.3628 117.969H34.3584C37.8547 117.969 40.6992 115.124 40.6992 111.628V100.191C45.3233 100.198 49.9668 100.205 54.5605 100.212V105.877C54.5605 107.098 55.5506 108.089 56.7725 108.089C57.9943 108.089 58.9844 107.098 58.9844 105.877V100.219C63.812 100.226 68.5581 100.232 73.1406 100.238V120.033C73.1406 121.255 74.1307 122.245 75.3525 122.245C76.5744 122.245 77.5645 121.255 77.5645 120.033V100.244C82.5604 100.25 87.3178 100.255 91.7207 100.26V128.143C91.7207 131.64 94.5652 134.484 98.0615 134.484H102.057C103.023 137.884 106.153 140.383 109.858 140.383C114.33 140.383 117.969 136.744 117.969 132.272C117.969 127.8 114.33 124.162 109.858 124.162C106.153 124.162 103.023 126.661 102.057 130.06H98.0615C97.0045 130.06 96.1445 129.2 96.1445 128.143V100.264C101.507 100.268 106.21 100.271 110.003 100.271H110.006V111.628C110.006 115.124 112.85 117.969 116.347 117.969H120.342C121.308 121.368 124.438 123.867 128.144 123.867C132.615 123.867 136.254 120.229 136.254 115.757C136.254 111.284 132.615 107.646 128.144 107.646ZM22.5615 119.443C20.5286 119.443 18.875 117.79 18.875 115.757C18.875 113.724 20.5286 112.07 22.5615 112.07C24.5944 112.07 26.248 113.724 26.248 115.757C26.248 117.79 24.5944 119.443 22.5615 119.443ZM109.858 128.586C111.891 128.586 113.545 130.239 113.545 132.272C113.545 134.305 111.891 135.959 109.858 135.959C107.826 135.959 106.172 134.305 106.172 132.272C106.172 130.239 107.826 128.586 109.858 128.586ZM128.144 119.443C126.111 119.443 124.457 117.79 124.457 115.757C124.457 113.724 126.111 112.07 128.144 112.07C130.176 112.07 131.83 113.724 131.83 115.757C131.83 117.79 130.176 119.443 128.144 119.443Z" fill="url(#paint3_linear_83_624)"/><defs><linearGradient id="paint0_linear_83_624" x1="21.1294" y1="90.4376" x2="151" y2="90.4376" gradientUnits="userSpaceOnUse"><stop stop-color="#6881F2"/><stop offset="0.345" stop-color="#9668F2"/><stop offset="1" stop-color="#D55FDD"/></linearGradient><linearGradient id="paint1_linear_83_624" x1="65.678" y1="151" x2="83.4629" y2="151" gradientUnits="userSpaceOnUse"><stop stop-color="#6881F2"/><stop offset="0.345" stop-color="#9668F2"/><stop offset="1" stop-color="#D55FDD"/></linearGradient><linearGradient id="paint2_linear_83_624" x1="30.2053" y1="140.383" x2="58.9844" y2="140.383" gradientUnits="userSpaceOnUse"><stop stop-color="#6881F2"/><stop offset="0.345" stop-color="#9668F2"/><stop offset="1" stop-color="#D55FDD"/></linearGradient><linearGradient id="paint3_linear_83_624" x1="-13.1388" y1="140.383" x2="136.254" y2="140.383" gradientUnits="userSpaceOnUse"><stop stop-color="#6881F2"/><stop offset="0.345" stop-color="#9668F2"/><stop offset="1" stop-color="#D55FDD"/></linearGradient></defs></svg>