<svg xmlns="http://www.w3.org/2000/svg" width="40" height="40" viewBox="0 0 40 40" fill="none">
  <circle cx="19.9313" cy="19.9313" r="19.4313" stroke="#585353"/>
  <path d="M19.5844 16.2598C17.6445 16.2598 16.0688 17.8849 16.0688 19.8857C16.0688 21.8864 17.6445 23.5155 19.5844 23.5155C21.5243 23.5155 23.1037 21.8864 23.1037 19.8857C23.1037 17.8849 21.5243 16.2598 19.5844 16.2598Z" fill="#585353"/>
  <path d="M24.8902 10.0001H14.2784C11.9207 10.0001 10 11.9811 10 14.4129V25.3578C10 27.7935 11.9207 29.7706 14.2784 29.7706H24.8902C27.2518 29.7706 29.1687 27.7935 29.1687 25.3578V14.4129C29.1687 11.9811 27.2518 10.0001 24.8902 10.0001ZM19.5843 26.291C16.1608 26.291 13.3737 23.4163 13.3737 19.8853C13.3737 16.3543 16.1608 13.4837 19.5843 13.4837C23.0079 13.4837 25.795 16.3543 25.795 19.8853C25.795 23.4163 23.0079 26.291 19.5843 26.291ZM25.9253 14.6462C25.2008 14.6462 24.6104 14.0412 24.6104 13.2939C24.6104 12.5466 25.2008 11.9376 25.9253 11.9376C26.6499 11.9376 27.2403 12.5466 27.2403 13.2939C27.2403 14.0412 26.6499 14.6462 25.9253 14.6462Z" fill="#585353"/>
</svg>