<svg width="110" height="120" viewBox="0 0 151 151" fill="none" xmlns="http://www.w3.org/2000/svg"><path d="M27.6784 0C23.5394 0 20.1333 3.40602 20.1333 7.54518V88.0786C20.1333 91.4374 25.1716 91.4374 25.1716 88.0786V25.1766H125.823V88.0786C125.747 91.5103 130.934 91.5103 130.857 88.0786V7.54518C130.857 3.40602 127.456 0 123.317 0H27.6784ZM27.6784 5.03834H123.317C124.754 5.03834 125.823 6.10738 125.823 7.54518V20.1383H25.1716V7.54518C25.1716 6.10738 26.2407 5.03834 27.6784 5.03834ZM32.7167 10.0668C31.3267 10.0668 30.2 11.1937 30.2 12.5835C30.2 13.9735 31.3267 15.0999 32.7167 15.0999C34.1065 15.0999 35.2333 13.9735 35.2333 12.5835C35.2333 11.1937 34.1065 10.0668 32.7167 10.0668ZM42.7833 10.0668C41.3935 10.0668 40.2667 11.1937 40.2667 12.5835C40.2667 13.9735 41.3935 15.0999 42.7833 15.0999C44.1733 15.0999 45.3 13.9735 45.3 12.5835C45.3 11.1937 44.1733 10.0668 42.7833 10.0668ZM52.85 10.0668C51.4601 10.0668 50.3333 11.1937 50.3333 12.5835C50.3333 13.9735 51.4601 15.0999 52.85 15.0999C54.24 15.0999 55.3667 13.9735 55.3667 12.5835C55.3667 11.1937 54.24 10.0668 52.85 10.0668ZM87.9555 10.0718C84.5576 10.3029 84.7895 15.1884 88.0736 15.1052H118.283C121.565 15.0291 121.565 10.1445 118.283 10.0718H87.9555ZM7.55984 15.1052C3.42068 15.1052 0 18.5063 0 22.6454V113.25C0 117.389 3.42068 120.795 7.55984 120.795H143.455C147.594 120.795 151 117.389 151 113.25V22.6451C151 18.506 147.594 15.1049 143.455 15.1049H138.422C134.991 15.0288 134.991 20.2144 138.422 20.1383H143.455C144.893 20.1383 145.962 21.2073 145.962 22.6451V95.6383H5.03333V22.6451C5.03333 21.2073 6.12212 20.1383 7.55984 20.1383H12.5735C16.0043 20.2144 16.0043 15.0288 12.5735 15.1049L7.55984 15.1052ZM83.0795 35.1941C81.9731 35.1866 80.9918 35.903 80.6611 36.959L65.5562 82.2539C64.4912 85.4391 69.269 87.0365 70.334 83.8513L85.4389 38.5416C86.0085 36.9119 84.8058 35.2055 83.0795 35.1941ZM94.0211 49.7437L106.801 60.405L94.0211 71.0518C91.2904 73.1896 94.6622 77.2235 97.2505 74.9154L112.336 62.3368C113.54 61.3307 113.54 59.4796 112.336 58.4735L97.2505 45.8754C96.7995 45.4893 96.2268 45.2751 95.5055 45.276C93.1266 45.4843 92.2641 48.3218 94.0211 49.7437ZM55.3028 45.2807C54.736 45.2997 54.1921 45.5089 53.7593 45.8752L38.6593 58.4732C37.4547 59.4794 37.4547 61.3304 38.6593 62.3365L53.7593 74.9151C56.3563 77.3338 59.8246 73.1654 56.974 71.0515L44.194 60.4047L56.974 49.7434C58.8335 48.2208 57.705 45.2074 55.3028 45.2807ZM5.03333 100.677H145.962V113.25C145.962 114.688 144.893 115.757 143.455 115.757H7.55984C6.12212 115.757 5.03333 114.688 5.03333 113.25V100.677ZM80.671 105.705L70.3438 105.71C67.1358 106.093 67.3513 110.638 70.4618 110.724H80.5333C83.9895 111.029 84.2773 105.774 80.671 105.705ZM61.3831 125.632C60.3729 125.613 59.4478 126.195 59.0335 127.116C57.8216 129.716 55.6504 132.751 51.9013 135.895H47.8167C43.6775 135.895 40.2765 139.321 40.2765 143.46V148.474C40.2715 149.864 41.3935 150.994 42.7833 151H108.212C109.609 151.005 110.744 149.871 110.738 148.474V143.46C110.738 139.321 107.318 135.895 103.178 135.895H99.0986C95.35 132.751 93.1783 129.715 91.9665 127.116C91.5403 126.171 90.5786 125.584 89.5432 125.637C87.7453 125.732 86.6224 127.624 87.405 129.245C88.3861 131.349 89.8841 133.606 91.9026 135.895H59.0974C61.1157 133.606 62.6138 131.349 63.595 129.245C64.394 127.594 63.2164 125.671 61.3831 125.632ZM47.8167 140.933H103.178C104.616 140.933 105.705 142.022 105.705 143.46V145.967H45.3098V143.46C45.3098 142.022 46.3789 140.933 47.8167 140.933Z" fill="url(#paint0_linear_83_281)"/><defs><linearGradient id="paint0_linear_83_281" x1="-14.5607" y1="151" x2="151" y2="151" gradientUnits="userSpaceOnUse"><stop stop-color="#6881F2"/><stop offset="0.345" stop-color="#9668F2"/><stop offset="1" stop-color="#D55FDD"/></linearGradient></defs></svg>