<svg width="110" height="120" viewBox="0 0 151 151" fill="none" xmlns="http://www.w3.org/2000/svg"><path d="M91.1016 28.6329L89.6503 32.7628C107.254 38.1348 120.14 54.4841 120.14 74.088C120.14 98.0778 100.534 117.595 76.4356 117.595C69.2006 117.595 62.0825 115.783 55.2791 112.208C54.7698 111.941 54.1764 111.888 53.6288 112.062L32.1588 118.89L39.1625 98.5962C39.2667 98.2943 39.3042 97.9731 39.2723 97.655C39.2405 97.337 39.1402 97.0298 38.9783 96.7551C34.9436 90.0074 32.7851 82.2849 32.7303 74.4015C32.7303 50.4113 52.3363 30.8941 76.4621 30.8941C80.069 30.8433 83.6683 31.2443 87.1777 32.0878L87.9184 27.7692C84.1542 26.8884 80.299 26.4673 76.4355 26.5149C49.9862 26.5149 28.3962 47.7719 28.3962 74.4015C28.4449 82.7246 30.6314 90.8924 34.7418 98.1054L26.6446 121.568C26.5103 121.951 26.4846 122.365 26.5705 122.763C26.6564 123.16 26.8505 123.526 27.1308 123.818C27.4111 124.11 27.7666 124.317 28.1572 124.416C28.5477 124.515 28.9579 124.501 29.3414 124.378L54.0847 116.508C61.0089 120.073 68.6646 121.945 76.4356 121.974C102.885 121.974 124.475 100.717 124.475 74.088C124.474 52.6776 110.474 34.6291 91.1016 28.6329Z" fill="url(#paint0_linear_83_408)"/><path d="M35.5733 74.0879C35.5546 82.3071 38.0905 90.3249 42.8233 97.0098L38.4903 110.337C38.3667 110.719 38.3493 111.128 38.4401 111.519C38.531 111.91 38.7265 112.268 39.0052 112.555C39.284 112.841 39.6354 113.045 40.0209 113.143C40.4064 113.241 40.8112 113.23 41.1911 113.112L55.2182 108.716C60.25 111.805 65.878 113.77 71.7239 114.479C77.5699 115.188 83.4982 114.624 89.1105 112.825C94.7228 111.026 99.889 108.034 104.262 104.051C108.635 100.067 112.113 95.1832 114.462 89.7282L110.573 87.7867C108.461 92.768 105.3 97.2245 101.31 100.846C97.3202 104.467 92.5971 107.167 87.4696 108.756C82.3421 110.346 76.9334 110.787 71.6199 110.049C66.3065 109.312 61.2159 107.413 56.7025 104.486C56.4362 104.312 56.1355 104.2 55.8216 104.157C55.5076 104.113 55.1881 104.14 54.8855 104.235L43.919 107.672L47.289 97.3065C47.3983 96.9705 47.4253 96.6127 47.3679 96.2638C47.3105 95.9148 47.1702 95.5852 46.9592 95.303C42.3694 89.2043 39.8916 81.7497 39.9076 74.088C39.9076 54.0676 56.2941 37.7797 76.4357 37.7797C96.4554 37.7797 112.982 54.0822 113.276 74.088C113.278 77.9519 112.658 81.7905 111.441 85.4533L115.623 86.6048C116.942 82.5551 117.612 78.3188 117.61 74.0555C117.281 51.6381 98.8105 33.4004 76.4361 33.4004C53.9041 33.4003 35.5733 51.6526 35.5733 74.0879Z" fill="url(#paint1_linear_83_408)"/><path d="M99.9194 82.4606C99.8833 82.4375 90.12 76.8614 87.7145 77.365C86.1398 77.6943 85.483 78.7368 84.9033 79.6566C84.1405 80.8716 83.26 82.0069 82.2749 83.0458C81.9715 83.0714 80.1736 83.0216 75.0687 79.1459C72.4582 77.1636 68.2296 72.7527 67.9007 71.0919C69.3383 69.8699 70.4746 68.3263 71.2194 66.5836C71.9273 64.9088 72.1215 64.6958 67.7834 54.5267C65.7304 49.7224 59.0774 50.6631 56.1735 53.5049C54.8007 54.8334 53.7046 56.4257 52.9496 58.1883C52.1946 59.951 51.7959 61.8483 51.7769 63.7688C51.505 77.1742 73.5991 98.0504 89.055 98.0504C92.4736 98.0504 99.223 95.9073 101.022 90.5495C101.686 88.5759 103.069 84.4689 99.9194 82.4606ZM96.9185 89.1386C95.8819 92.2347 90.9655 93.6712 89.0538 93.6712C75.5953 93.6712 55.8975 74.3595 56.11 63.8587C56.122 62.5106 56.4006 61.1784 56.9293 59.9406C57.458 58.7027 58.2262 57.5841 59.1888 56.6504C60.3538 55.5107 63.2375 55.0006 63.7867 56.2217C65.8529 61.7423 67.0251 64.0269 67.2409 64.8463C65.8094 68.1526 63.5719 67.8809 63.5465 70.8521C63.5045 75.7061 72.3752 82.579 72.4651 82.6469C77.7836 86.6845 82.9662 89.3107 85.6771 85.7599C86.8134 84.5571 87.8199 83.2357 88.6797 81.8179C90.4669 82.4237 95.1096 84.7809 97.5558 86.1395C97.7268 86.739 97.1219 88.5352 96.9185 89.1386Z" fill="url(#paint2_linear_83_408)"/><path d="M132.411 20.9692L135.428 17.8218C134.429 16.7659 133.392 15.7486 132.316 14.77L129.302 17.9207C130.38 18.8936 131.417 19.9098 132.411 20.9692Z" fill="url(#paint3_linear_83_408)"/><path d="M137.552 20.1982L134.157 22.9212C142.228 32.3578 146.668 44.4141 146.666 56.8862V94.1141C146.666 123.067 123.094 146.621 94.1199 146.621H56.8804C47.2909 146.635 37.8795 144.004 29.6611 139.011C21.4428 134.019 14.7294 126.853 10.2451 118.289L6.50073 120.498C11.3685 129.723 18.629 137.436 27.5041 142.809C36.3791 148.182 46.5341 151.014 56.8804 151H94.1199C125.484 151 151 125.481 151 94.1141V56.8863C151.003 43.4256 146.232 30.4094 137.552 20.1982Z" fill="url(#paint4_linear_83_408)"/><path d="M4.33413 94.114V56.8861C4.33413 27.9337 27.9064 4.37934 56.8805 4.37934H94.1198C106.206 4.36015 117.93 8.54231 127.326 16.2239L129.902 12.7019C119.76 4.46288 107.133 -0.0195835 94.1198 6.43169e-05H56.8804C25.5163 6.43169e-05 2.6574e-05 25.5191 2.6574e-05 56.8861V94.114C-0.0078345 102.23 1.72848 110.252 5.08898 117.624L9.09803 115.948C5.95327 109.108 4.3273 101.656 4.33413 94.114Z" fill="url(#paint5_linear_83_408)"/><defs><linearGradient id="paint0_linear_83_408" x1="17.0752" y1="124.481" x2="124.475" y2="124.481" gradientUnits="userSpaceOnUse"><stop stop-color="#6881F2"/><stop offset="0.345" stop-color="#9668F2"/><stop offset="1" stop-color="#D55FDD"/></linearGradient><linearGradient id="paint1_linear_83_408" x1="27.6626" y1="114.776" x2="117.61" y2="114.776" gradientUnits="userSpaceOnUse"><stop stop-color="#6881F2"/><stop offset="0.345" stop-color="#9668F2"/><stop offset="1" stop-color="#D55FDD"/></linearGradient><linearGradient id="paint2_linear_83_408" x1="46.9406" y1="98.0504" x2="101.903" y2="98.0504" gradientUnits="userSpaceOnUse"><stop stop-color="#6881F2"/><stop offset="0.345" stop-color="#9668F2"/><stop offset="1" stop-color="#D55FDD"/></linearGradient><linearGradient id="paint3_linear_83_408" x1="128.712" y1="20.9692" x2="135.428" y2="20.9692" gradientUnits="userSpaceOnUse"><stop stop-color="#6881F2"/><stop offset="0.345" stop-color="#9668F2"/><stop offset="1" stop-color="#D55FDD"/></linearGradient><linearGradient id="paint4_linear_83_408" x1="-7.43313" y1="151" x2="151" y2="151" gradientUnits="userSpaceOnUse"><stop stop-color="#6881F2"/><stop offset="0.345" stop-color="#9668F2"/><stop offset="1" stop-color="#D55FDD"/></linearGradient><linearGradient id="paint5_linear_83_408" x1="-12.5263" y1="117.624" x2="129.902" y2="117.624" gradientUnits="userSpaceOnUse"><stop stop-color="#6881F2"/><stop offset="0.345" stop-color="#9668F2"/><stop offset="1" stop-color="#D55FDD"/></linearGradient></defs></svg>