<svg xmlns="http://www.w3.org/2000/svg" width="41" height="40" viewBox="0 0 41 40" fill="none">
  <circle cx="20.6564" cy="19.9313" r="19.4313" stroke="#585353"/>
  <path d="M29.8886 29.7782L29.8935 29.7773V22.4293C29.8935 18.8346 29.1432 16.0656 25.0687 16.0656C23.1099 16.0656 21.7954 17.1742 21.2588 18.2252H21.2021V16.4011H17.3389V29.7773H21.3616V23.1539C21.3616 21.41 21.6821 19.7237 23.776 19.7237C25.8392 19.7237 25.87 21.7139 25.87 23.2658V29.7782H29.8886Z" fill="#585353"/>
  <path d="M10.7881 16.402H14.8157V29.7782H10.7881V16.402Z" fill="#585353"/>
  <path d="M12.8005 9.74268C11.5127 9.74268 10.4678 10.8204 10.4678 12.1486C10.4678 13.4768 11.5127 14.5771 12.8005 14.5771C14.0882 14.5771 15.1332 13.4768 15.1332 12.1486C15.1324 10.8204 14.0874 9.74268 12.8005 9.74268Z" fill="#585353"/>
</svg>